<?xml version="1.0" standalone="no"?>
<!DOCTYPE svg PUBLIC "-//W3C//DTD SVG 20010904//EN"
 "http://www.w3.org/TR/2001/REC-SVG-20010904/DTD/svg10.dtd">
<svg version="1.0" xmlns="http://www.w3.org/2000/svg"
 width="300.000000pt" height="300.000000pt" viewBox="0 0 300.000000 300.000000"
 preserveAspectRatio="xMidYMid meet">

<g transform="translate(0.000000,300.000000) scale(0.100000,-0.100000)"
fill="#000000" stroke="none">
<path d="M1636 2324 l-119 -94 -34 21 c-41 25 -69 20 -168 -34 l-60 -32 -70
-138 c-69 -136 -72 -140 -149 -200 l-79 -62 53 -3 c48 -3 51 -5 47 -25 -18
-74 -19 -100 -3 -142 18 -47 44 -64 129 -85 28 -8 47 -18 47 -26 0 -8 -18 -67
-40 -131 -22 -64 -38 -118 -36 -120 5 -6 870 685 874 698 2 5 -80 9 -196 9
l-199 0 63 223 c35 122 63 225 61 228 -1 4 -56 -35 -121 -87z m-139 -103 c33
-26 43 -63 21 -77 -8 -5 -6 -11 7 -20 30 -22 11 -44 -37 -44 -24 0 -52 -7 -62
-15 -23 -17 -67 -20 -82 -5 -7 7 -17 3 -30 -11 -10 -13 -13 -19 -6 -15 16 9
15 -3 -3 -34 -18 -31 -19 -50 -2 -27 10 14 12 -1 10 -83 -2 -56 -7 -109 -13
-120 -5 -10 -10 -29 -10 -42 1 -21 2 -20 14 7 20 44 89 106 128 114 34 8 96
-4 113 -21 7 -6 -7 -8 -40 -4 -39 5 -45 4 -27 -4 13 -5 26 -19 29 -30 3 -11 7
-20 8 -20 2 0 41 20 87 45 47 25 105 48 129 51 45 6 124 -13 124 -30 0 -22
-55 -49 -115 -56 -8 -1 -4 -5 10 -9 22 -6 17 -13 -77 -89 -91 -73 -103 -80
-113 -65 -10 16 -10 15 -5 -4 5 -17 -1 -26 -22 -39 -15 -10 -43 -33 -62 -51
-19 -18 -43 -33 -54 -33 -32 0 -269 61 -300 77 -30 15 -57 66 -57 108 0 39 36
136 106 290 90 195 100 207 191 254 43 21 84 36 93 33 8 -3 30 -17 47 -31z"/>
<path d="M1415 2170 c-18 -19 -17 -20 3 -20 12 0 22 6 22 14 0 8 6 17 13 19 8
4 6 6 -4 6 -9 1 -24 -8 -34 -19z"/>
<path d="M1127 1701 c-10 -45 -9 -47 9 -65 17 -18 79 -22 89 -6 4 7 -9 10 -37
8 l-43 -3 -5 50 c-5 49 -5 49 -13 16z"/>
<path d="M863 1103 c-20 -7 -18 -239 1 -246 8 -3 76 -6 150 -6 100 0 139 3
149 13 11 11 16 11 32 0 10 -8 39 -14 63 -14 35 0 49 6 73 29 27 27 29 35 29
101 0 66 -2 74 -29 101 -33 33 -86 39 -131 16 -22 -11 -28 -11 -38 0 -13 13
-116 19 -146 7 -13 -5 -16 -22 -16 -85 l0 -79 -35 0 -35 0 0 79 c0 63 -3 80
-16 85 -18 7 -33 7 -51 -1z m47 -103 l0 -80 45 0 c38 0 45 -3 45 -20 0 -18 -7
-20 -65 -20 l-65 0 0 100 c0 93 1 100 20 100 18 0 20 -7 20 -80z m240 60 c0
-17 -7 -20 -45 -20 -38 0 -45 -3 -45 -20 0 -17 7 -20 40 -20 33 0 40 -3 40
-20 0 -17 -7 -20 -40 -20 -33 0 -40 -3 -40 -20 0 -17 7 -20 45 -20 38 0 45 -3
45 -20 0 -18 -7 -20 -65 -20 l-65 0 0 100 0 100 65 0 c58 0 65 -2 65 -20z
m170 0 c16 -16 20 -33 20 -80 0 -77 -20 -100 -84 -100 -59 0 -86 32 -86 100 0
68 27 100 86 100 31 0 50 -6 64 -20z"/>
<path d="M1234 1032 c-34 -22 -25 -99 12 -108 34 -9 54 12 54 55 0 52 -31 76
-66 53z m42 -27 c8 -34 -3 -75 -21 -75 -11 0 -15 13 -15 50 0 37 4 50 15 50 8
0 17 -11 21 -25z"/>
<path d="M1470 1095 c-12 -7 -29 -23 -36 -36 -16 -30 -18 -105 -3 -148 16 -46
51 -59 148 -58 69 0 84 4 96 20 13 19 13 19 24 -2 13 -23 59 -29 79 -9 9 9 18
9 37 0 34 -16 84 -15 115 1 22 11 28 11 38 0 13 -13 145 -19 176 -7 10 4 16
18 16 40 0 29 -4 35 -27 40 -16 3 -32 7 -36 8 -4 0 8 24 28 51 41 59 46 102
13 110 -13 3 -72 4 -133 3 l-110 -3 -5 -84 c-3 -55 -9 -86 -17 -89 -10 -3 -13
17 -13 75 0 48 -5 84 -12 91 -16 16 -53 15 -67 -2 -10 -12 -17 -12 -44 -1 -42
17 -234 17 -267 0z m108 -37 c3 -14 -4 -18 -31 -18 -41 0 -60 -20 -60 -62 0
-37 24 -58 70 -58 22 0 33 -5 33 -14 0 -31 -86 -36 -121 -7 -21 16 -24 28 -24
81 0 53 3 64 24 81 32 26 104 23 109 -3z m164 5 c22 -20 23 -61 2 -91 -14 -21
-14 -25 5 -57 l20 -35 -24 0 c-19 0 -30 9 -42 35 -9 19 -23 35 -30 35 -8 0
-13 -13 -13 -35 0 -31 -3 -35 -25 -35 l-25 0 0 100 0 100 57 0 c38 0 62 -5 75
-17z m98 -58 c0 -61 3 -77 16 -82 35 -13 49 11 52 86 3 63 5 71 22 71 18 0 20
-7 20 -82 0 -99 -12 -118 -75 -118 -68 0 -79 15 -84 114 l-3 86 26 0 c26 0 26
-1 26 -75z m300 63 c0 -7 -23 -42 -50 -78 l-49 -65 50 -3 c41 -3 49 -6 49 -23
0 -17 -7 -19 -80 -19 -57 0 -80 4 -80 13 0 6 23 41 51 77 l50 65 -50 3 c-43 3
-51 6 -51 23 0 17 7 19 80 19 57 0 80 -4 80 -12z m-550 -84 c0 -34 -4 -44 -20
-49 -31 -10 -60 4 -61 28 -3 54 9 68 54 65 25 -2 27 -6 27 -44z m422 4 c-31
-54 -42 -55 -42 -6 0 44 1 44 30 40 l30 -4 -18 -30z m-245 -50 c-3 -8 -6 -5
-6 6 -1 11 2 17 5 13 3 -3 4 -12 1 -19z"/>
<path d="M1660 1015 c0 -23 4 -26 28 -23 19 2 27 9 27 23 0 14 -8 21 -27 23
-24 3 -28 0 -28 -23z"/>
<path d="M877 754 c-4 -4 -7 -12 -7 -18 0 -6 4 -5 9 2 13 21 47 10 43 -13 -2
-11 -9 -23 -15 -27 -8 -5 -6 -8 6 -8 9 0 17 -5 17 -11 0 -7 -12 -10 -30 -7
-16 3 -30 1 -30 -4 0 -4 32 -8 71 -8 l70 0 -3 48 -3 47 -60 3 c-34 2 -64 0
-68 -4z m123 -46 c0 -36 -2 -38 -30 -38 -28 0 -30 2 -30 39 0 38 2 40 30 39
28 -1 30 -4 30 -40z"/>
<path d="M1113 753 c-7 -2 -13 -11 -13 -19 0 -8 -4 -14 -10 -14 -5 0 -10 -7
-10 -15 0 -8 5 -15 10 -15 6 0 10 -5 10 -11 0 -7 -11 -9 -26 -6 -16 3 -22 1
-16 -5 5 -5 95 -8 207 -6 166 3 199 5 202 18 4 12 3 12 -5 2 -5 -8 -20 -12
-33 -10 -19 2 -25 10 -27 35 -3 25 1 33 19 38 16 5 26 2 36 -11 7 -10 13 -13
13 -7 0 24 -31 30 -157 31 -94 1 -133 -2 -133 -11 0 -8 -3 -8 -12 1 -12 12
-33 14 -55 5z m58 -43 l5 -35 8 37 c7 33 11 36 41 36 28 0 34 -4 38 -26 9 -47
1 -52 -79 -51 -53 1 -74 5 -74 14 0 8 -3 15 -7 18 -5 2 -2 2 5 1 6 -2 12 5 12
15 0 46 43 39 51 -9z m139 0 c0 -29 -4 -40 -15 -40 -11 0 -15 11 -15 40 0 29
4 40 15 40 11 0 15 -11 15 -40z m78 -2 c3 -35 2 -36 -32 -36 -34 0 -36 2 -36
32 0 40 5 45 38 43 23 -2 27 -7 30 -39z"/>
<path d="M1514 735 c-3 -14 -4 -29 0 -32 3 -4 6 4 6 16 0 26 28 40 42 20 8
-12 9 -11 5 1 -2 8 -13 16 -25 18 -16 3 -23 -3 -28 -23z"/>
<path d="M1620 751 c0 -6 7 -8 15 -5 11 5 15 -1 15 -25 0 -17 5 -31 10 -31 22
0 8 -19 -17 -23 -16 -2 13 -4 62 -5 87 0 115 8 115 32 0 6 -5 3 -11 -6 -5 -10
-22 -18 -36 -18 -20 0 -23 3 -14 13 8 10 7 17 -1 25 -16 16 10 45 35 38 15 -4
17 -2 9 6 -9 9 -18 8 -36 0 -16 -7 -28 -8 -31 -2 -4 6 -14 10 -23 9 -12 0 -10
-3 6 -10 19 -7 23 -15 20 -41 -2 -28 -7 -33 -28 -33 -22 0 -25 4 -25 37 0 38
-14 43 -16 5 -1 -16 -3 -14 -8 8 -6 28 -41 50 -41 26z"/>
<path d="M1860 750 c-8 -5 -12 -11 -10 -14 3 -2 14 2 24 10 22 15 10 19 -14 4z"/>
<path d="M1915 754 c-6 -2 -9 -23 -7 -45 4 -41 4 -42 -26 -37 -17 2 -29 1 -26
-4 3 -4 64 -7 136 -5 97 1 132 5 134 15 1 7 0 8 -3 2 -2 -5 -17 -10 -33 -10
-33 0 -47 28 -31 59 9 16 8 21 -7 25 -19 6 -122 6 -137 0z m57 -32 c6 -41 0
-52 -28 -52 -27 0 -33 19 -6 21 16 1 16 2 0 6 -10 2 -18 12 -18 22 0 42 46 44
52 3z m72 -15 c1 -34 -1 -37 -26 -37 -26 0 -28 3 -28 39 0 37 2 40 26 38 24
-2 27 -7 28 -40z"/>
<path d="M2110 736 c0 -8 -8 -16 -17 -18 -13 -3 -11 -5 8 -9 22 -5 25 -3 21
18 -5 26 -12 31 -12 9z"/>
<path d="M1042 710 c0 -14 2 -19 5 -12 2 6 2 18 0 25 -3 6 -5 1 -5 -13z"/>
<path d="M1795 720 c-3 -5 -1 -10 4 -10 6 0 11 5 11 10 0 6 -2 10 -4 10 -3 0
-8 -4 -11 -10z"/>
<path d="M1431 704 c0 -11 3 -14 6 -6 3 7 2 16 -1 19 -3 4 -6 -2 -5 -13z"/>
<path d="M1572 700 c0 -14 2 -19 5 -12 2 6 2 18 0 25 -3 6 -5 1 -5 -13z"/>
<path d="M1500 668 c0 -4 19 -8 42 -8 23 0 39 2 36 5 -9 9 -78 12 -78 3z"/>
</g>
</svg>
